<svg xmlns="http://www.w3.org/2000/svg" xmlns:xlink="http://www.w3.org/1999/xlink" width="512" zoomAndPan="magnify" viewBox="0 0 384 383.999986" height="512" preserveAspectRatio="xMidYMid meet" version="1.0"><defs><clipPath id="921141dbce"><path d="M 159 212 L 225 212 L 225 358.417969 L 159 358.417969 Z M 159 212 " clip-rule="nonzero"/></clipPath><clipPath id="6226afa7de"><path d="M 159 25.417969 L 225 25.417969 L 225 172 L 159 172 Z M 159 25.417969 " clip-rule="nonzero"/></clipPath><clipPath id="015174c29d"><path d="M 212 159 L 358.417969 159 L 358.417969 225 L 212 225 Z M 212 159 " clip-rule="nonzero"/></clipPath><clipPath id="11ee087c96"><path d="M 25.417969 159 L 172 159 L 172 225 L 25.417969 225 Z M 25.417969 159 " clip-rule="nonzero"/></clipPath></defs><g clip-path="url(#921141dbce)"><path fill="#00897b" d="M 213.855469 270.75 C 198.292969 239.253906 193.183594 217.5625 192.195312 212.871094 C 192.101562 212.875 192.007812 212.882812 191.914062 212.882812 C 191.878906 212.882812 191.847656 212.878906 191.8125 212.878906 C 190.816406 217.589844 185.707031 239.273438 170.152344 270.75 C 152.5 306.472656 155.863281 358.585938 192 358.59375 L 192.007812 358.59375 C 228.148438 358.585938 231.507812 306.472656 213.855469 270.75 Z M 213.855469 270.75 " fill-opacity="1" fill-rule="nonzero"/></g><g clip-path="url(#6226afa7de)"><path fill="#00897b" d="M 170.152344 113.257812 C 185.714844 144.757812 190.824219 166.445312 191.816406 171.140625 C 191.910156 171.132812 192 171.125 192.097656 171.125 C 192.128906 171.125 192.164062 171.128906 192.195312 171.128906 C 193.191406 166.417969 198.304688 144.734375 213.855469 113.257812 C 231.507812 77.535156 228.148438 25.425781 192.007812 25.417969 L 192 25.417969 C 155.863281 25.425781 152.5 77.535156 170.152344 113.257812 Z M 170.152344 113.257812 " fill-opacity="1" fill-rule="nonzero"/></g><g clip-path="url(#015174c29d)"><path fill="#00897b" d="M 270.75 170.152344 C 239.253906 185.714844 217.5625 190.824219 212.871094 191.816406 C 212.875 191.910156 212.882812 192 212.882812 192.097656 C 212.882812 192.128906 212.878906 192.164062 212.878906 192.195312 C 217.589844 193.191406 239.273438 198.304688 270.75 213.855469 C 306.472656 231.507812 358.585938 228.148438 358.59375 192.007812 L 358.59375 192 C 358.585938 155.863281 306.472656 152.5 270.75 170.152344 Z M 270.75 170.152344 " fill-opacity="1" fill-rule="nonzero"/></g><g clip-path="url(#11ee087c96)"><path fill="#00897b" d="M 113.257812 213.855469 C 144.757812 198.292969 166.445312 193.183594 171.140625 192.195312 C 171.132812 192.101562 171.125 192.007812 171.125 191.914062 C 171.125 191.878906 171.128906 191.847656 171.128906 191.8125 C 166.417969 190.816406 144.734375 185.707031 113.257812 170.152344 C 77.535156 152.5 25.425781 155.863281 25.417969 192 L 25.417969 192.007812 C 25.425781 228.148438 77.535156 231.507812 113.257812 213.855469 Z M 113.257812 213.855469 " fill-opacity="1" fill-rule="nonzero"/></g><path fill="#00897b" d="M 249.527344 225.914062 C 223.042969 216.945312 207.960938 207.613281 204.765625 205.53125 C 204.714844 205.585938 204.667969 205.644531 204.613281 205.699219 C 204.59375 205.714844 204.574219 205.730469 204.554688 205.75 C 206.644531 208.960938 215.96875 224.039062 224.933594 250.503906 C 235.101562 280.542969 266.316406 307.976562 286.660156 287.644531 L 286.664062 287.640625 C 306.996094 267.296875 279.5625 236.082031 249.527344 225.914062 Z M 249.527344 225.914062 " fill-opacity="1" fill-rule="nonzero"/><path fill="#00897b" d="M 136.304688 161.878906 C 162.789062 170.847656 177.867188 180.179688 181.066406 182.261719 C 181.117188 182.203125 181.164062 182.148438 181.21875 182.09375 C 181.234375 182.074219 181.257812 182.058594 181.277344 182.042969 C 179.183594 178.828125 169.859375 163.75 160.898438 137.285156 C 150.730469 107.25 119.511719 79.816406 99.171875 100.148438 L 99.167969 100.152344 C 78.835938 120.492188 106.269531 151.710938 136.304688 161.878906 Z M 136.304688 161.878906 " fill-opacity="1" fill-rule="nonzero"/><path fill="#00897b" d="M 224.933594 137.285156 C 215.964844 163.769531 206.632812 178.847656 204.550781 182.046875 C 204.605469 182.097656 204.664062 182.144531 204.71875 182.199219 C 204.734375 182.21875 204.75 182.238281 204.769531 182.257812 C 207.980469 180.164062 223.058594 170.839844 249.523438 161.878906 C 279.5625 151.710938 306.996094 120.492188 286.664062 100.152344 L 286.660156 100.148438 C 266.316406 79.816406 235.101562 107.25 224.933594 137.285156 Z M 224.933594 137.285156 " fill-opacity="1" fill-rule="nonzero"/><path fill="#00897b" d="M 160.898438 250.507812 C 169.867188 224.023438 179.195312 208.941406 181.28125 205.746094 C 181.222656 205.695312 181.167969 205.648438 181.113281 205.59375 C 181.09375 205.574219 181.078125 205.554688 181.058594 205.535156 C 177.847656 207.625 162.769531 216.949219 136.304688 225.914062 C 106.269531 236.082031 78.835938 267.296875 99.167969 287.640625 L 99.171875 287.644531 C 119.511719 307.976562 150.730469 280.542969 160.898438 250.507812 Z M 160.898438 250.507812 " fill-opacity="1" fill-rule="nonzero"/></svg>