<svg xmlns="http://www.w3.org/2000/svg" xmlns:xlink="http://www.w3.org/1999/xlink" width="280" zoomAndPan="magnify" viewBox="0 0 210 44.999999" height="60" preserveAspectRatio="xMidYMid meet" version="1.0"><defs><g/><clipPath id="27a7964703"><path d="M 34 24 L 42 24 L 42 39.652344 L 34 39.652344 Z M 34 24 " clip-rule="nonzero"/></clipPath><clipPath id="caeb6b689d"><path d="M 34 5.152344 L 42 5.152344 L 42 21 L 34 21 Z M 34 5.152344 " clip-rule="nonzero"/></clipPath><clipPath id="152ef77c5d"><path d="M 40 19 L 55.132812 19 L 55.132812 26 L 40 26 Z M 40 19 " clip-rule="nonzero"/></clipPath><clipPath id="d0d1bc2731"><path d="M 20.632812 19 L 36 19 L 36 26 L 20.632812 26 Z M 20.632812 19 " clip-rule="nonzero"/></clipPath><clipPath id="25e574cdbd"><rect x="0" width="128" y="0" height="31"/></clipPath></defs><g clip-path="url(#27a7964703)"><path fill="#9fa8da" d="M 40.25 30.695312 C 38.628906 27.414062 38.097656 25.15625 37.996094 24.667969 C 37.984375 24.667969 37.976562 24.667969 37.964844 24.667969 C 37.960938 24.667969 37.957031 24.667969 37.957031 24.667969 C 37.851562 25.160156 37.320312 27.417969 35.699219 30.695312 C 33.863281 34.414062 34.210938 39.839844 37.976562 39.839844 C 41.738281 39.839844 42.089844 34.414062 40.25 30.695312 Z M 40.25 30.695312 " fill-opacity="1" fill-rule="nonzero"/></g><g clip-path="url(#caeb6b689d)"><path fill="#9fa8da" d="M 35.699219 14.296875 C 37.320312 17.574219 37.851562 19.835938 37.957031 20.324219 C 37.964844 20.320312 37.976562 20.320312 37.984375 20.320312 C 37.988281 20.320312 37.992188 20.320312 37.996094 20.320312 C 38.097656 19.832031 38.632812 17.574219 40.25 14.296875 C 42.089844 10.578125 41.738281 5.152344 37.976562 5.152344 C 34.210938 5.152344 33.863281 10.578125 35.699219 14.296875 Z M 35.699219 14.296875 " fill-opacity="1" fill-rule="nonzero"/></g><g clip-path="url(#152ef77c5d)"><path fill="#9fa8da" d="M 46.171875 20.21875 C 42.894531 21.839844 40.636719 22.371094 40.148438 22.476562 C 40.148438 22.484375 40.148438 22.496094 40.148438 22.503906 C 40.148438 22.507812 40.148438 22.511719 40.148438 22.515625 C 40.640625 22.617188 42.898438 23.152344 46.171875 24.769531 C 49.894531 26.609375 55.320312 26.257812 55.320312 22.496094 C 55.320312 18.730469 49.894531 18.382812 46.171875 20.21875 Z M 46.171875 20.21875 " fill-opacity="1" fill-rule="nonzero"/></g><g clip-path="url(#d0d1bc2731)"><path fill="#9fa8da" d="M 29.777344 24.769531 C 33.054688 23.148438 35.3125 22.617188 35.804688 22.515625 C 35.800781 22.503906 35.800781 22.496094 35.800781 22.484375 C 35.800781 22.480469 35.800781 22.480469 35.800781 22.476562 C 35.3125 22.371094 33.054688 21.839844 29.777344 20.21875 C 26.058594 18.382812 20.632812 18.730469 20.632812 22.496094 C 20.632812 26.257812 26.058594 26.609375 29.777344 24.769531 Z M 29.777344 24.769531 " fill-opacity="1" fill-rule="nonzero"/></g><path fill="#9fa8da" d="M 43.964844 26.027344 C 41.207031 25.09375 39.636719 24.121094 39.304688 23.902344 C 39.296875 23.910156 39.292969 23.914062 39.289062 23.921875 C 39.285156 23.921875 39.285156 23.925781 39.28125 23.925781 C 39.5 24.261719 40.46875 25.832031 41.402344 28.585938 C 42.460938 31.714844 45.710938 34.570312 47.832031 32.453125 C 49.949219 30.335938 47.089844 27.085938 43.964844 26.027344 Z M 43.964844 26.027344 " fill-opacity="1" fill-rule="nonzero"/><path fill="#9fa8da" d="M 32.175781 19.359375 C 34.933594 20.292969 36.503906 21.265625 36.835938 21.480469 C 36.839844 21.476562 36.847656 21.46875 36.851562 21.464844 C 36.855469 21.460938 36.855469 21.460938 36.859375 21.457031 C 36.640625 21.125 35.667969 19.554688 34.738281 16.796875 C 33.679688 13.671875 30.425781 10.816406 28.308594 12.929688 L 28.308594 12.933594 C 26.191406 15.050781 29.046875 18.300781 32.175781 19.359375 Z M 32.175781 19.359375 " fill-opacity="1" fill-rule="nonzero"/><path fill="#9fa8da" d="M 41.402344 16.796875 C 40.46875 19.554688 39.5 21.125 39.28125 21.457031 C 39.285156 21.464844 39.292969 21.46875 39.296875 21.472656 C 39.300781 21.476562 39.300781 21.476562 39.304688 21.480469 C 39.640625 21.261719 41.207031 20.292969 43.964844 19.359375 C 47.089844 18.300781 49.949219 15.050781 47.832031 12.933594 L 47.832031 12.929688 C 45.710938 10.816406 42.460938 13.671875 41.402344 16.796875 Z M 41.402344 16.796875 " fill-opacity="1" fill-rule="nonzero"/><path fill="#9fa8da" d="M 34.738281 28.585938 C 35.671875 25.828125 36.640625 24.257812 36.859375 23.925781 C 36.851562 23.921875 36.847656 23.914062 36.839844 23.910156 C 36.839844 23.90625 36.835938 23.90625 36.835938 23.902344 C 36.5 24.121094 34.929688 25.09375 32.175781 26.027344 C 29.046875 27.085938 26.191406 30.335938 28.308594 32.453125 C 30.425781 34.570312 33.679688 31.714844 34.738281 28.585938 Z M 34.738281 28.585938 " fill-opacity="1" fill-rule="nonzero"/><g transform="matrix(1, 0, 0, 1, 60, 10)"><g clip-path="url(#25e574cdbd)"><g fill="#4db6ac" fill-opacity="1"><g transform="translate(1.094918, 24.283984)"><g><path d="M 7.84375 0 L 3.21875 0 L 3.21875 -3.140625 L 7.671875 -3.140625 C 8.828125 -3.140625 9.796875 -3.347656 10.578125 -3.765625 C 11.359375 -4.179688 11.941406 -4.816406 12.328125 -5.671875 C 12.722656 -6.535156 12.921875 -7.628906 12.921875 -8.953125 C 12.921875 -10.265625 12.722656 -11.347656 12.328125 -12.203125 C 11.941406 -13.054688 11.359375 -13.691406 10.578125 -14.109375 C 9.804688 -14.523438 8.84375 -14.734375 7.6875 -14.734375 L 3.125 -14.734375 L 3.125 -17.875 L 7.90625 -17.875 C 9.707031 -17.875 11.253906 -17.515625 12.546875 -16.796875 C 13.835938 -16.085938 14.832031 -15.0625 15.53125 -13.71875 C 16.226562 -12.382812 16.578125 -10.796875 16.578125 -8.953125 C 16.578125 -7.097656 16.226562 -5.5 15.53125 -4.15625 C 14.84375 -2.820312 13.84375 -1.796875 12.53125 -1.078125 C 11.226562 -0.359375 9.664062 0 7.84375 0 Z M 5.21875 -17.875 L 5.21875 0 L 1.546875 0 L 1.546875 -17.875 Z M 5.21875 -17.875 "/></g></g></g><g fill="#4db6ac" fill-opacity="1"><g transform="translate(18.718083, 24.283984)"><g><path d="M 7.453125 0.265625 C 6.117188 0.265625 4.960938 -0.0195312 3.984375 -0.59375 C 3.003906 -1.164062 2.242188 -1.960938 1.703125 -2.984375 C 1.171875 -4.015625 0.90625 -5.210938 0.90625 -6.578125 C 0.90625 -7.953125 1.171875 -9.148438 1.703125 -10.171875 C 2.242188 -11.203125 3.003906 -12.003906 3.984375 -12.578125 C 4.960938 -13.148438 6.117188 -13.4375 7.453125 -13.4375 C 8.773438 -13.4375 9.925781 -13.148438 10.90625 -12.578125 C 11.894531 -12.003906 12.65625 -11.203125 13.1875 -10.171875 C 13.71875 -9.148438 13.984375 -7.953125 13.984375 -6.578125 C 13.984375 -5.210938 13.71875 -4.015625 13.1875 -2.984375 C 12.65625 -1.960938 11.894531 -1.164062 10.90625 -0.59375 C 9.925781 -0.0195312 8.773438 0.265625 7.453125 0.265625 Z M 7.453125 -2.5625 C 8.078125 -2.5625 8.601562 -2.734375 9.03125 -3.078125 C 9.457031 -3.421875 9.78125 -3.894531 10 -4.5 C 10.226562 -5.101562 10.34375 -5.800781 10.34375 -6.59375 C 10.34375 -7.382812 10.226562 -8.078125 10 -8.671875 C 9.78125 -9.273438 9.457031 -9.75 9.03125 -10.09375 C 8.601562 -10.4375 8.078125 -10.609375 7.453125 -10.609375 C 6.828125 -10.609375 6.296875 -10.4375 5.859375 -10.09375 C 5.429688 -9.75 5.109375 -9.273438 4.890625 -8.671875 C 4.671875 -8.078125 4.5625 -7.382812 4.5625 -6.59375 C 4.5625 -5.800781 4.671875 -5.101562 4.890625 -4.5 C 5.109375 -3.894531 5.429688 -3.421875 5.859375 -3.078125 C 6.285156 -2.734375 6.816406 -2.5625 7.453125 -2.5625 Z M 7.453125 -2.5625 "/></g></g></g><g fill="#4db6ac" fill-opacity="1"><g transform="translate(33.605998, 24.283984)"><g><path d="M 6.78125 0.28125 C 5.695312 0.28125 4.738281 0.125 3.90625 -0.1875 C 3.070312 -0.507812 2.390625 -0.96875 1.859375 -1.5625 C 1.335938 -2.164062 1.007812 -2.890625 0.875 -3.734375 L 4.25 -4.1875 C 4.394531 -3.582031 4.679688 -3.125 5.109375 -2.8125 C 5.546875 -2.5 6.128906 -2.34375 6.859375 -2.34375 C 7.535156 -2.34375 8.066406 -2.472656 8.453125 -2.734375 C 8.847656 -2.992188 9.046875 -3.320312 9.046875 -3.71875 C 9.046875 -4.0625 8.90625 -4.34375 8.625 -4.5625 C 8.34375 -4.78125 7.914062 -4.953125 7.34375 -5.078125 L 5.046875 -5.53125 C 3.765625 -5.789062 2.804688 -6.238281 2.171875 -6.875 C 1.535156 -7.507812 1.21875 -8.328125 1.21875 -9.328125 C 1.21875 -10.160156 1.445312 -10.882812 1.90625 -11.5 C 2.363281 -12.125 3.007812 -12.601562 3.84375 -12.9375 C 4.675781 -13.269531 5.65625 -13.4375 6.78125 -13.4375 C 7.851562 -13.4375 8.78125 -13.285156 9.5625 -12.984375 C 10.34375 -12.679688 10.972656 -12.25 11.453125 -11.6875 C 11.929688 -11.125 12.234375 -10.460938 12.359375 -9.703125 L 9.15625 -9.265625 C 9.039062 -9.734375 8.789062 -10.117188 8.40625 -10.421875 C 8.019531 -10.722656 7.503906 -10.875 6.859375 -10.875 C 6.253906 -10.875 5.753906 -10.742188 5.359375 -10.484375 C 4.972656 -10.234375 4.78125 -9.910156 4.78125 -9.515625 C 4.78125 -9.179688 4.910156 -8.898438 5.171875 -8.671875 C 5.441406 -8.441406 5.878906 -8.269531 6.484375 -8.15625 L 8.875 -7.671875 C 10.175781 -7.410156 11.140625 -6.984375 11.765625 -6.390625 C 12.390625 -5.804688 12.703125 -5.035156 12.703125 -4.078125 C 12.703125 -3.203125 12.453125 -2.4375 11.953125 -1.78125 C 11.453125 -1.132812 10.753906 -0.628906 9.859375 -0.265625 C 8.960938 0.0976562 7.9375 0.28125 6.78125 0.28125 Z M 6.78125 0.28125 "/></g></g></g><g fill="#4db6ac" fill-opacity="1"><g transform="translate(47.150282, 24.283984)"><g><path d="M 7.484375 0.265625 C 6.128906 0.265625 4.960938 -0.015625 3.984375 -0.578125 C 3.003906 -1.140625 2.242188 -1.929688 1.703125 -2.953125 C 1.171875 -3.972656 0.90625 -5.175781 0.90625 -6.5625 C 0.90625 -7.925781 1.171875 -9.125 1.703125 -10.15625 C 2.234375 -11.1875 2.976562 -11.988281 3.9375 -12.5625 C 4.894531 -13.144531 6.019531 -13.4375 7.3125 -13.4375 C 8.195312 -13.4375 9.019531 -13.289062 9.78125 -13 C 10.539062 -12.71875 11.207031 -12.296875 11.78125 -11.734375 C 12.351562 -11.171875 12.796875 -10.46875 13.109375 -9.625 C 13.421875 -8.78125 13.578125 -7.804688 13.578125 -6.703125 L 13.578125 -5.703125 L 2.34375 -5.703125 L 2.34375 -7.953125 L 11.84375 -7.953125 L 10.171875 -7.375 C 10.171875 -8.0625 10.0625 -8.65625 9.84375 -9.15625 C 9.632812 -9.65625 9.316406 -10.039062 8.890625 -10.3125 C 8.472656 -10.59375 7.957031 -10.734375 7.34375 -10.734375 C 6.726562 -10.734375 6.203125 -10.59375 5.765625 -10.3125 C 5.335938 -10.039062 5.007812 -9.660156 4.78125 -9.171875 C 4.550781 -8.679688 4.4375 -8.117188 4.4375 -7.484375 L 4.4375 -5.90625 C 4.4375 -5.15625 4.5625 -4.519531 4.8125 -4 C 5.070312 -3.488281 5.4375 -3.097656 5.90625 -2.828125 C 6.375 -2.554688 6.921875 -2.421875 7.546875 -2.421875 C 7.972656 -2.421875 8.359375 -2.484375 8.703125 -2.609375 C 9.054688 -2.734375 9.351562 -2.910156 9.59375 -3.140625 C 9.832031 -3.378906 10.019531 -3.671875 10.15625 -4.015625 L 13.40625 -3.546875 C 13.195312 -2.785156 12.820312 -2.117188 12.28125 -1.546875 C 11.738281 -0.972656 11.0625 -0.523438 10.25 -0.203125 C 9.4375 0.109375 8.515625 0.265625 7.484375 0.265625 Z M 7.484375 0.265625 "/></g></g></g><g fill="#4db6ac" fill-opacity="1"><g transform="translate(61.594317, 24.283984)"><g><path d="M 9.390625 0.25 C 7.796875 0.25 6.367188 -0.113281 5.109375 -0.84375 C 3.847656 -1.570312 2.851562 -2.617188 2.125 -3.984375 C 1.40625 -5.347656 1.046875 -6.992188 1.046875 -8.921875 C 1.046875 -10.859375 1.410156 -12.515625 2.140625 -13.890625 C 2.867188 -15.265625 3.863281 -16.316406 5.125 -17.046875 C 6.382812 -17.773438 7.804688 -18.140625 9.390625 -18.140625 C 10.410156 -18.140625 11.363281 -17.992188 12.25 -17.703125 C 13.132812 -17.410156 13.914062 -16.988281 14.59375 -16.4375 C 15.269531 -15.882812 15.828125 -15.210938 16.265625 -14.421875 C 16.703125 -13.628906 16.988281 -12.726562 17.125 -11.71875 L 13.421875 -11.71875 C 13.328125 -12.21875 13.164062 -12.660156 12.9375 -13.046875 C 12.707031 -13.441406 12.421875 -13.773438 12.078125 -14.046875 C 11.734375 -14.328125 11.335938 -14.535156 10.890625 -14.671875 C 10.453125 -14.804688 9.972656 -14.875 9.453125 -14.875 C 8.515625 -14.875 7.691406 -14.640625 6.984375 -14.171875 C 6.273438 -13.703125 5.726562 -13.023438 5.34375 -12.140625 C 4.957031 -11.253906 4.765625 -10.179688 4.765625 -8.921875 C 4.765625 -7.648438 4.957031 -6.570312 5.34375 -5.6875 C 5.726562 -4.8125 6.273438 -4.144531 6.984375 -3.6875 C 7.691406 -3.226562 8.515625 -3 9.453125 -3 C 9.960938 -3 10.4375 -3.070312 10.875 -3.21875 C 11.320312 -3.363281 11.71875 -3.566406 12.0625 -3.828125 C 12.414062 -4.097656 12.707031 -4.425781 12.9375 -4.8125 C 13.164062 -5.207031 13.328125 -5.65625 13.421875 -6.15625 L 17.140625 -6.15625 C 17.023438 -5.28125 16.765625 -4.457031 16.359375 -3.6875 C 15.953125 -2.925781 15.414062 -2.242188 14.75 -1.640625 C 14.082031 -1.046875 13.296875 -0.582031 12.390625 -0.25 C 11.492188 0.0820312 10.492188 0.25 9.390625 0.25 Z M 9.390625 0.25 "/></g></g></g><g fill="#4db6ac" fill-opacity="1"><g transform="translate(79.69735, 24.283984)"><g><path d="M 7.484375 0.265625 C 6.128906 0.265625 4.960938 -0.015625 3.984375 -0.578125 C 3.003906 -1.140625 2.242188 -1.929688 1.703125 -2.953125 C 1.171875 -3.972656 0.90625 -5.175781 0.90625 -6.5625 C 0.90625 -7.925781 1.171875 -9.125 1.703125 -10.15625 C 2.234375 -11.1875 2.976562 -11.988281 3.9375 -12.5625 C 4.894531 -13.144531 6.019531 -13.4375 7.3125 -13.4375 C 8.195312 -13.4375 9.019531 -13.289062 9.78125 -13 C 10.539062 -12.71875 11.207031 -12.296875 11.78125 -11.734375 C 12.351562 -11.171875 12.796875 -10.46875 13.109375 -9.625 C 13.421875 -8.78125 13.578125 -7.804688 13.578125 -6.703125 L 13.578125 -5.703125 L 2.34375 -5.703125 L 2.34375 -7.953125 L 11.84375 -7.953125 L 10.171875 -7.375 C 10.171875 -8.0625 10.0625 -8.65625 9.84375 -9.15625 C 9.632812 -9.65625 9.316406 -10.039062 8.890625 -10.3125 C 8.472656 -10.59375 7.957031 -10.734375 7.34375 -10.734375 C 6.726562 -10.734375 6.203125 -10.59375 5.765625 -10.3125 C 5.335938 -10.039062 5.007812 -9.660156 4.78125 -9.171875 C 4.550781 -8.679688 4.4375 -8.117188 4.4375 -7.484375 L 4.4375 -5.90625 C 4.4375 -5.15625 4.5625 -4.519531 4.8125 -4 C 5.070312 -3.488281 5.4375 -3.097656 5.90625 -2.828125 C 6.375 -2.554688 6.921875 -2.421875 7.546875 -2.421875 C 7.972656 -2.421875 8.359375 -2.484375 8.703125 -2.609375 C 9.054688 -2.734375 9.351562 -2.910156 9.59375 -3.140625 C 9.832031 -3.378906 10.019531 -3.671875 10.15625 -4.015625 L 13.40625 -3.546875 C 13.195312 -2.785156 12.820312 -2.117188 12.28125 -1.546875 C 11.738281 -0.972656 11.0625 -0.523438 10.25 -0.203125 C 9.4375 0.109375 8.515625 0.265625 7.484375 0.265625 Z M 7.484375 0.265625 "/></g></g></g><g fill="#4db6ac" fill-opacity="1"><g transform="translate(94.141385, 24.283984)"><g><path d="M 1.46875 0 L 1.46875 -13.25 L 4.9375 -13.25 L 4.9375 -10.953125 L 5.0625 -10.953125 C 5.300781 -11.765625 5.703125 -12.375 6.265625 -12.78125 C 6.828125 -13.195312 7.488281 -13.40625 8.25 -13.40625 C 8.445312 -13.40625 8.648438 -13.394531 8.859375 -13.375 C 9.066406 -13.363281 9.242188 -13.34375 9.390625 -13.3125 L 9.390625 -10.140625 C 9.242188 -10.191406 9.019531 -10.226562 8.71875 -10.25 C 8.414062 -10.28125 8.125 -10.296875 7.84375 -10.296875 C 7.320312 -10.296875 6.84375 -10.175781 6.40625 -9.9375 C 5.976562 -9.707031 5.644531 -9.378906 5.40625 -8.953125 C 5.164062 -8.535156 5.046875 -8.039062 5.046875 -7.46875 L 5.046875 0 Z M 1.46875 0 "/></g></g></g><g fill="#4db6ac" fill-opacity="1"><g transform="translate(103.966696, 24.283984)"><g><path d="M 8.265625 -13.25 L 8.265625 -10.5 L 0.234375 -10.5 L 0.234375 -13.25 Z M 2.15625 -16.5 L 5.734375 -16.5 L 5.734375 -3.921875 C 5.734375 -3.492188 5.828125 -3.179688 6.015625 -2.984375 C 6.203125 -2.796875 6.515625 -2.703125 6.953125 -2.703125 C 7.117188 -2.703125 7.328125 -2.710938 7.578125 -2.734375 C 7.828125 -2.765625 8.019531 -2.789062 8.15625 -2.8125 L 8.5625 -0.09375 C 8.195312 -0.0078125 7.816406 0.046875 7.421875 0.078125 C 7.035156 0.117188 6.65625 0.140625 6.28125 0.140625 C 4.925781 0.140625 3.898438 -0.171875 3.203125 -0.796875 C 2.503906 -1.421875 2.15625 -2.335938 2.15625 -3.546875 Z M 2.15625 -16.5 "/></g></g></g><g fill="#4db6ac" fill-opacity="1"><g transform="translate(112.976219, 24.283984)"><g><path d="M 5.25 0.25 C 4.394531 0.25 3.628906 0.101562 2.953125 -0.1875 C 2.285156 -0.488281 1.757812 -0.929688 1.375 -1.515625 C 0.988281 -2.109375 0.796875 -2.835938 0.796875 -3.703125 C 0.796875 -4.453125 0.929688 -5.070312 1.203125 -5.5625 C 1.484375 -6.0625 1.859375 -6.460938 2.328125 -6.765625 C 2.796875 -7.066406 3.332031 -7.296875 3.9375 -7.453125 C 4.539062 -7.609375 5.175781 -7.71875 5.84375 -7.78125 C 6.625 -7.863281 7.25 -7.9375 7.71875 -8 C 8.1875 -8.070312 8.53125 -8.179688 8.75 -8.328125 C 8.96875 -8.472656 9.078125 -8.691406 9.078125 -8.984375 L 9.078125 -9.03125 C 9.078125 -9.40625 8.992188 -9.722656 8.828125 -9.984375 C 8.660156 -10.242188 8.421875 -10.441406 8.109375 -10.578125 C 7.796875 -10.710938 7.414062 -10.78125 6.96875 -10.78125 C 6.507812 -10.78125 6.109375 -10.710938 5.765625 -10.578125 C 5.429688 -10.441406 5.15625 -10.253906 4.9375 -10.015625 C 4.726562 -9.773438 4.582031 -9.507812 4.5 -9.21875 L 1.203125 -9.640625 C 1.378906 -10.441406 1.726562 -11.125 2.25 -11.6875 C 2.769531 -12.257812 3.429688 -12.691406 4.234375 -12.984375 C 5.046875 -13.285156 5.972656 -13.4375 7.015625 -13.4375 C 7.765625 -13.4375 8.476562 -13.347656 9.15625 -13.171875 C 9.832031 -12.992188 10.429688 -12.722656 10.953125 -12.359375 C 11.484375 -11.992188 11.898438 -11.523438 12.203125 -10.953125 C 12.503906 -10.390625 12.65625 -9.71875 12.65625 -8.9375 L 12.65625 0 L 9.234375 0 L 9.234375 -1.84375 L 9.125 -1.84375 C 8.90625 -1.425781 8.617188 -1.0625 8.265625 -0.75 C 7.910156 -0.4375 7.484375 -0.191406 6.984375 -0.015625 C 6.484375 0.160156 5.90625 0.25 5.25 0.25 Z M 6.25 -2.25 C 6.820312 -2.25 7.316406 -2.359375 7.734375 -2.578125 C 8.160156 -2.804688 8.492188 -3.109375 8.734375 -3.484375 C 8.972656 -3.867188 9.09375 -4.296875 9.09375 -4.765625 L 9.09375 -6.171875 C 8.976562 -6.109375 8.820312 -6.039062 8.625 -5.96875 C 8.425781 -5.90625 8.195312 -5.847656 7.9375 -5.796875 C 7.6875 -5.753906 7.429688 -5.710938 7.171875 -5.671875 C 6.910156 -5.628906 6.671875 -5.59375 6.453125 -5.5625 C 6.023438 -5.5 5.640625 -5.394531 5.296875 -5.25 C 4.960938 -5.113281 4.703125 -4.925781 4.515625 -4.6875 C 4.335938 -4.457031 4.25 -4.164062 4.25 -3.8125 C 4.25 -3.476562 4.332031 -3.191406 4.5 -2.953125 C 4.675781 -2.722656 4.914062 -2.546875 5.21875 -2.421875 C 5.519531 -2.304688 5.863281 -2.25 6.25 -2.25 Z M 6.25 -2.25 "/></g></g></g></g></g></svg>