<svg xmlns="http://www.w3.org/2000/svg" xmlns:xlink="http://www.w3.org/1999/xlink" width="280" zoomAndPan="magnify" viewBox="0 0 210 112.499997" height="150" preserveAspectRatio="xMidYMid meet" version="1.0"><defs><g/><clipPath id="bcbe6787d6"><path d="M 103 20.914062 L 111 20.914062 L 111 37 L 103 37 Z M 103 20.914062 " clip-rule="nonzero"/></clipPath><clipPath id="bb3d571056"><path d="M 109 35 L 124.539062 35 L 124.539062 42 L 109 42 Z M 109 35 " clip-rule="nonzero"/></clipPath><clipPath id="53313d79da"><path d="M 89.445312 35 L 105 35 L 105 42 L 89.445312 42 Z M 89.445312 35 " clip-rule="nonzero"/></clipPath></defs><path fill="#00897b" d="M 109.289062 46.75 C 107.648438 43.433594 107.109375 41.148438 107.007812 40.652344 C 106.996094 40.65625 106.988281 40.65625 106.976562 40.65625 C 106.972656 40.65625 106.96875 40.65625 106.964844 40.65625 C 106.863281 41.152344 106.324219 43.433594 104.6875 46.75 C 102.828125 50.511719 103.179688 56 106.988281 56 C 110.792969 56 111.148438 50.511719 109.289062 46.75 Z M 109.289062 46.75 " fill-opacity="1" fill-rule="nonzero"/><g clip-path="url(#bcbe6787d6)"><path fill="#00897b" d="M 104.6875 30.164062 C 106.324219 33.480469 106.863281 35.765625 106.96875 36.261719 C 106.976562 36.257812 106.988281 36.257812 106.996094 36.257812 C 107 36.257812 107.003906 36.257812 107.007812 36.257812 C 107.113281 35.761719 107.648438 33.480469 109.289062 30.164062 C 111.148438 26.402344 110.792969 20.917969 106.988281 20.914062 C 103.179688 20.917969 102.828125 26.402344 104.6875 30.164062 Z M 104.6875 30.164062 " fill-opacity="1" fill-rule="nonzero"/></g><g clip-path="url(#bb3d571056)"><path fill="#00897b" d="M 115.277344 36.15625 C 111.960938 37.792969 109.679688 38.332031 109.183594 38.4375 C 109.183594 38.445312 109.183594 38.457031 109.183594 38.464844 C 109.183594 38.46875 109.183594 38.472656 109.183594 38.476562 C 109.679688 38.582031 111.964844 39.121094 115.277344 40.757812 C 119.039062 42.617188 124.527344 42.261719 124.527344 38.457031 C 124.527344 34.652344 119.039062 34.296875 115.277344 36.15625 Z M 115.277344 36.15625 " fill-opacity="1" fill-rule="nonzero"/></g><g clip-path="url(#53313d79da)"><path fill="#00897b" d="M 98.695312 40.757812 C 102.011719 39.121094 104.296875 38.582031 104.789062 38.476562 C 104.789062 38.46875 104.789062 38.457031 104.789062 38.449219 C 104.789062 38.445312 104.789062 38.441406 104.789062 38.4375 C 104.292969 38.332031 102.007812 37.792969 98.695312 36.15625 C 94.933594 34.296875 89.445312 34.652344 89.445312 38.457031 C 89.445312 42.261719 94.933594 42.617188 98.695312 40.757812 Z M 98.695312 40.757812 " fill-opacity="1" fill-rule="nonzero"/></g><path fill="#00897b" d="M 113.042969 42.027344 C 110.253906 41.082031 108.667969 40.101562 108.332031 39.882812 C 108.324219 39.886719 108.320312 39.894531 108.316406 39.898438 C 108.3125 39.902344 108.308594 39.902344 108.308594 39.90625 C 108.527344 40.242188 109.511719 41.832031 110.453125 44.617188 C 111.523438 47.78125 114.8125 50.667969 116.953125 48.527344 C 119.09375 46.386719 116.207031 43.097656 113.042969 42.027344 Z M 113.042969 42.027344 " fill-opacity="1" fill-rule="nonzero"/><path fill="#00897b" d="M 101.121094 35.285156 C 103.910156 36.230469 105.5 37.210938 105.835938 37.429688 C 105.839844 37.425781 105.84375 37.417969 105.851562 37.414062 C 105.851562 37.410156 105.855469 37.410156 105.855469 37.40625 C 105.636719 37.070312 104.65625 35.480469 103.710938 32.695312 C 102.640625 29.53125 99.351562 26.644531 97.210938 28.785156 C 95.070312 30.925781 97.957031 34.214844 101.121094 35.285156 Z M 101.121094 35.285156 " fill-opacity="1" fill-rule="nonzero"/><path fill="#00897b" d="M 110.453125 32.695312 C 109.511719 35.484375 108.527344 37.070312 108.308594 37.410156 C 108.3125 37.414062 108.320312 37.417969 108.324219 37.425781 C 108.328125 37.425781 108.328125 37.429688 108.332031 37.429688 C 108.667969 37.210938 110.257812 36.226562 113.042969 35.285156 C 116.207031 34.214844 119.09375 30.925781 116.953125 28.785156 C 114.8125 26.644531 111.523438 29.53125 110.453125 32.695312 Z M 110.453125 32.695312 " fill-opacity="1" fill-rule="nonzero"/><path fill="#00897b" d="M 103.710938 44.617188 C 104.65625 41.828125 105.636719 40.242188 105.859375 39.902344 C 105.851562 39.898438 105.84375 39.894531 105.839844 39.886719 C 105.839844 39.886719 105.835938 39.882812 105.835938 39.882812 C 105.496094 40.101562 103.910156 41.082031 101.121094 42.027344 C 97.957031 43.097656 95.070312 46.386719 97.210938 48.527344 C 99.351562 50.667969 102.640625 47.78125 103.710938 44.617188 Z M 103.710938 44.617188 " fill-opacity="1" fill-rule="nonzero"/><g fill="#00897b" fill-opacity="1"><g transform="translate(21.865588, 104.514909)"><g><path d="M 10.875 0 L 4.453125 0 L 4.453125 -4.359375 L 10.625 -4.359375 C 12.226562 -4.359375 13.566406 -4.644531 14.640625 -5.21875 C 15.722656 -5.789062 16.535156 -6.671875 17.078125 -7.859375 C 17.617188 -9.054688 17.890625 -10.566406 17.890625 -12.390625 C 17.890625 -14.210938 17.617188 -15.710938 17.078125 -16.890625 C 16.535156 -18.078125 15.726562 -18.957031 14.65625 -19.53125 C 13.582031 -20.113281 12.25 -20.40625 10.65625 -20.40625 L 4.34375 -20.40625 L 4.34375 -24.765625 L 10.953125 -24.765625 C 13.441406 -24.765625 15.582031 -24.265625 17.375 -23.265625 C 19.164062 -22.273438 20.546875 -20.851562 21.515625 -19 C 22.484375 -17.15625 22.96875 -14.953125 22.96875 -12.390625 C 22.96875 -9.828125 22.484375 -7.617188 21.515625 -5.765625 C 20.554688 -3.910156 19.171875 -2.484375 17.359375 -1.484375 C 15.546875 -0.492188 13.382812 0 10.875 0 Z M 7.234375 -24.765625 L 7.234375 0 L 2.140625 0 L 2.140625 -24.765625 Z M 7.234375 -24.765625 "/></g></g></g><g fill="#00897b" fill-opacity="1"><g transform="translate(46.26811, 104.514909)"><g><path d="M 10.3125 0.359375 C 8.46875 0.359375 6.863281 -0.0351562 5.5 -0.828125 C 4.144531 -1.617188 3.097656 -2.722656 2.359375 -4.140625 C 1.628906 -5.566406 1.265625 -7.222656 1.265625 -9.109375 C 1.265625 -11.015625 1.628906 -12.675781 2.359375 -14.09375 C 3.097656 -15.519531 4.144531 -16.628906 5.5 -17.421875 C 6.863281 -18.210938 8.46875 -18.609375 10.3125 -18.609375 C 12.15625 -18.609375 13.753906 -18.210938 15.109375 -17.421875 C 16.472656 -16.628906 17.519531 -15.519531 18.25 -14.09375 C 18.988281 -12.675781 19.359375 -11.015625 19.359375 -9.109375 C 19.359375 -7.222656 18.988281 -5.566406 18.25 -4.140625 C 17.519531 -2.722656 16.472656 -1.617188 15.109375 -0.828125 C 13.753906 -0.0351562 12.15625 0.359375 10.3125 0.359375 Z M 10.3125 -3.5625 C 11.175781 -3.5625 11.90625 -3.796875 12.5 -4.265625 C 13.09375 -4.742188 13.546875 -5.398438 13.859375 -6.234375 C 14.171875 -7.078125 14.328125 -8.039062 14.328125 -9.125 C 14.328125 -10.21875 14.171875 -11.179688 13.859375 -12.015625 C 13.546875 -12.847656 13.09375 -13.5 12.5 -13.96875 C 11.90625 -14.445312 11.175781 -14.6875 10.3125 -14.6875 C 9.445312 -14.6875 8.71875 -14.445312 8.125 -13.96875 C 7.53125 -13.5 7.078125 -12.847656 6.765625 -12.015625 C 6.460938 -11.179688 6.3125 -10.21875 6.3125 -9.125 C 6.3125 -8.039062 6.460938 -7.078125 6.765625 -6.234375 C 7.078125 -5.398438 7.523438 -4.742188 8.109375 -4.265625 C 8.703125 -3.796875 9.4375 -3.5625 10.3125 -3.5625 Z M 10.3125 -3.5625 "/></g></g></g><g fill="#00897b" fill-opacity="1"><g transform="translate(66.883174, 104.514909)"><g><path d="M 9.390625 0.375 C 7.890625 0.375 6.5625 0.15625 5.40625 -0.28125 C 4.25 -0.71875 3.304688 -1.347656 2.578125 -2.171875 C 1.859375 -3.003906 1.40625 -4.003906 1.21875 -5.171875 L 5.875 -5.796875 C 6.09375 -4.953125 6.5 -4.3125 7.09375 -3.875 C 7.695312 -3.445312 8.492188 -3.234375 9.484375 -3.234375 C 10.429688 -3.234375 11.175781 -3.414062 11.71875 -3.78125 C 12.257812 -4.144531 12.53125 -4.601562 12.53125 -5.15625 C 12.53125 -5.625 12.332031 -6.007812 11.9375 -6.3125 C 11.539062 -6.625 10.953125 -6.863281 10.171875 -7.03125 L 7 -7.65625 C 5.226562 -8.019531 3.894531 -8.640625 3 -9.515625 C 2.113281 -10.390625 1.671875 -11.519531 1.671875 -12.90625 C 1.671875 -14.070312 1.988281 -15.082031 2.625 -15.9375 C 3.269531 -16.789062 4.171875 -17.445312 5.328125 -17.90625 C 6.484375 -18.375 7.835938 -18.609375 9.390625 -18.609375 C 10.867188 -18.609375 12.148438 -18.394531 13.234375 -17.96875 C 14.328125 -17.550781 15.203125 -16.953125 15.859375 -16.171875 C 16.515625 -15.398438 16.929688 -14.488281 17.109375 -13.4375 L 12.671875 -12.828125 C 12.523438 -13.484375 12.179688 -14.019531 11.640625 -14.4375 C 11.097656 -14.851562 10.378906 -15.0625 9.484375 -15.0625 C 8.648438 -15.0625 7.960938 -14.882812 7.421875 -14.53125 C 6.890625 -14.1875 6.625 -13.734375 6.625 -13.171875 C 6.625 -12.710938 6.804688 -12.320312 7.171875 -12 C 7.546875 -11.6875 8.144531 -11.445312 8.96875 -11.28125 L 12.296875 -10.625 C 14.085938 -10.269531 15.414062 -9.679688 16.28125 -8.859375 C 17.15625 -8.035156 17.59375 -6.96875 17.59375 -5.65625 C 17.59375 -4.445312 17.242188 -3.390625 16.546875 -2.484375 C 15.847656 -1.578125 14.878906 -0.875 13.640625 -0.375 C 12.410156 0.125 10.992188 0.375 9.390625 0.375 Z M 9.390625 0.375 "/></g></g></g><g fill="#00897b" fill-opacity="1"><g transform="translate(85.637732, 104.514909)"><g><path d="M 10.359375 0.359375 C 8.484375 0.359375 6.863281 -0.0234375 5.5 -0.796875 C 4.144531 -1.566406 3.097656 -2.660156 2.359375 -4.078125 C 1.628906 -5.503906 1.265625 -7.175781 1.265625 -9.09375 C 1.265625 -10.988281 1.628906 -12.644531 2.359375 -14.0625 C 3.085938 -15.488281 4.113281 -16.601562 5.4375 -17.40625 C 6.769531 -18.207031 8.332031 -18.609375 10.125 -18.609375 C 11.351562 -18.609375 12.492188 -18.410156 13.546875 -18.015625 C 14.597656 -17.617188 15.519531 -17.03125 16.3125 -16.25 C 17.101562 -15.46875 17.71875 -14.488281 18.15625 -13.3125 C 18.59375 -12.144531 18.8125 -10.796875 18.8125 -9.265625 L 18.8125 -7.890625 L 3.234375 -7.890625 L 3.234375 -11.015625 L 16.40625 -11.015625 L 14.09375 -10.203125 C 14.09375 -11.148438 13.941406 -11.972656 13.640625 -12.671875 C 13.335938 -13.367188 12.894531 -13.910156 12.3125 -14.296875 C 11.738281 -14.679688 11.023438 -14.875 10.171875 -14.875 C 9.316406 -14.875 8.585938 -14.675781 7.984375 -14.28125 C 7.390625 -13.894531 6.929688 -13.363281 6.609375 -12.6875 C 6.296875 -12.019531 6.140625 -11.25 6.140625 -10.375 L 6.140625 -8.171875 C 6.140625 -7.140625 6.316406 -6.265625 6.671875 -5.546875 C 7.035156 -4.828125 7.539062 -4.28125 8.1875 -3.90625 C 8.832031 -3.539062 9.585938 -3.359375 10.453125 -3.359375 C 11.035156 -3.359375 11.566406 -3.441406 12.046875 -3.609375 C 12.535156 -3.785156 12.945312 -4.035156 13.28125 -4.359375 C 13.625 -4.691406 13.882812 -5.09375 14.0625 -5.5625 L 18.5625 -4.921875 C 18.269531 -3.859375 17.75 -2.929688 17 -2.140625 C 16.257812 -1.347656 15.328125 -0.734375 14.203125 -0.296875 C 13.078125 0.140625 11.796875 0.359375 10.359375 0.359375 Z M 10.359375 0.359375 "/></g></g></g><g fill="#00897b" fill-opacity="1"><g transform="translate(105.645571, 104.514909)"><g><path d="M 13 0.34375 C 10.84375 0.34375 8.925781 -0.175781 7.25 -1.21875 C 5.582031 -2.257812 4.273438 -3.726562 3.328125 -5.625 C 2.378906 -7.53125 1.90625 -9.773438 1.90625 -12.359375 C 1.90625 -14.960938 2.378906 -17.210938 3.328125 -19.109375 C 4.273438 -21.015625 5.582031 -22.488281 7.25 -23.53125 C 8.925781 -24.582031 10.84375 -25.109375 13 -25.109375 C 14.257812 -25.109375 15.445312 -24.921875 16.5625 -24.546875 C 17.6875 -24.179688 18.691406 -23.644531 19.578125 -22.9375 C 20.472656 -22.226562 21.21875 -21.367188 21.8125 -20.359375 C 22.40625 -19.347656 22.8125 -18.203125 23.03125 -16.921875 L 19.890625 -16.921875 C 19.710938 -17.785156 19.410156 -18.539062 18.984375 -19.1875 C 18.554688 -19.84375 18.03125 -20.394531 17.40625 -20.84375 C 16.789062 -21.300781 16.109375 -21.644531 15.359375 -21.875 C 14.609375 -22.101562 13.820312 -22.21875 13 -22.21875 C 11.457031 -22.21875 10.078125 -21.828125 8.859375 -21.046875 C 7.648438 -20.273438 6.695312 -19.15625 6 -17.6875 C 5.3125 -16.21875 4.96875 -14.441406 4.96875 -12.359375 C 4.96875 -10.285156 5.316406 -8.515625 6.015625 -7.046875 C 6.710938 -5.585938 7.664062 -4.472656 8.875 -3.703125 C 10.09375 -2.929688 11.46875 -2.546875 13 -2.546875 C 13.820312 -2.546875 14.609375 -2.660156 15.359375 -2.890625 C 16.109375 -3.117188 16.789062 -3.457031 17.40625 -3.90625 C 18.019531 -4.363281 18.539062 -4.914062 18.96875 -5.5625 C 19.40625 -6.21875 19.71875 -6.972656 19.90625 -7.828125 L 23.03125 -7.828125 C 22.820312 -6.566406 22.414062 -5.429688 21.8125 -4.421875 C 21.21875 -3.421875 20.476562 -2.5625 19.59375 -1.84375 C 18.707031 -1.132812 17.703125 -0.59375 16.578125 -0.21875 C 15.460938 0.15625 14.269531 0.34375 13 0.34375 Z M 13 0.34375 "/></g></g></g><g fill="#00897b" fill-opacity="1"><g transform="translate(130.43016, 104.514909)"><g><path d="M 10.1875 0.40625 C 8.414062 0.40625 6.882812 0.00390625 5.59375 -0.796875 C 4.3125 -1.597656 3.328125 -2.707031 2.640625 -4.125 C 1.953125 -5.539062 1.609375 -7.1875 1.609375 -9.0625 C 1.609375 -10.925781 1.945312 -12.578125 2.625 -14.015625 C 3.3125 -15.460938 4.273438 -16.585938 5.515625 -17.390625 C 6.765625 -18.203125 8.21875 -18.609375 9.875 -18.609375 C 10.914062 -18.609375 11.914062 -18.429688 12.875 -18.078125 C 13.84375 -17.734375 14.707031 -17.1875 15.46875 -16.4375 C 16.226562 -15.695312 16.832031 -14.738281 17.28125 -13.5625 C 17.726562 -12.382812 17.953125 -10.984375 17.953125 -9.359375 L 17.953125 -8.203125 L 3.515625 -8.203125 L 3.515625 -10.703125 L 16.328125 -10.703125 L 14.984375 -9.796875 C 14.984375 -11.003906 14.785156 -12.070312 14.390625 -13 C 14.003906 -13.9375 13.429688 -14.664062 12.671875 -15.1875 C 11.910156 -15.71875 10.976562 -15.984375 9.875 -15.984375 C 8.769531 -15.984375 7.820312 -15.71875 7.03125 -15.1875 C 6.238281 -14.65625 5.632812 -13.945312 5.21875 -13.0625 C 4.800781 -12.1875 4.59375 -11.222656 4.59375 -10.171875 L 4.59375 -8.609375 C 4.59375 -7.265625 4.820312 -6.113281 5.28125 -5.15625 C 5.738281 -4.207031 6.390625 -3.484375 7.234375 -2.984375 C 8.085938 -2.492188 9.078125 -2.25 10.203125 -2.25 C 10.953125 -2.25 11.628906 -2.359375 12.234375 -2.578125 C 12.835938 -2.796875 13.351562 -3.117188 13.78125 -3.546875 C 14.21875 -3.984375 14.546875 -4.519531 14.765625 -5.15625 L 17.640625 -4.515625 C 17.367188 -3.554688 16.890625 -2.703125 16.203125 -1.953125 C 15.515625 -1.210938 14.65625 -0.632812 13.625 -0.21875 C 12.601562 0.195312 11.457031 0.40625 10.1875 0.40625 Z M 10.1875 0.40625 "/></g></g></g><g fill="#00897b" fill-opacity="1"><g transform="translate(149.915631, 104.514909)"><g><path d="M 2.515625 0 L 2.515625 -18.34375 L 5.34375 -18.34375 L 5.34375 -15.515625 L 5.515625 -15.515625 C 5.859375 -16.453125 6.453125 -17.203125 7.296875 -17.765625 C 8.140625 -18.328125 9.109375 -18.609375 10.203125 -18.609375 C 10.429688 -18.609375 10.691406 -18.601562 10.984375 -18.59375 C 11.273438 -18.582031 11.492188 -18.570312 11.640625 -18.5625 L 11.640625 -15.59375 C 11.554688 -15.613281 11.335938 -15.644531 10.984375 -15.6875 C 10.640625 -15.726562 10.269531 -15.75 9.875 -15.75 C 9.039062 -15.75 8.285156 -15.570312 7.609375 -15.21875 C 6.941406 -14.863281 6.414062 -14.363281 6.03125 -13.71875 C 5.65625 -13.082031 5.46875 -12.328125 5.46875 -11.453125 L 5.46875 0 Z M 2.515625 0 "/></g></g></g><g fill="#00897b" fill-opacity="1"><g transform="translate(162.307926, 104.514909)"><g><path d="M 9.90625 -18.34375 L 9.90625 -15.8125 L 0.3125 -15.8125 L 0.3125 -18.34375 Z M 3.171875 -22.84375 L 6.125 -22.84375 L 6.125 -4.6875 C 6.125 -3.894531 6.285156 -3.316406 6.609375 -2.953125 C 6.941406 -2.597656 7.5 -2.421875 8.28125 -2.421875 C 8.476562 -2.421875 8.722656 -2.4375 9.015625 -2.46875 C 9.304688 -2.507812 9.578125 -2.546875 9.828125 -2.578125 L 10.296875 -0.078125 C 9.992188 0.00390625 9.648438 0.0664062 9.265625 0.109375 C 8.878906 0.160156 8.503906 0.1875 8.140625 0.1875 C 6.554688 0.1875 5.332031 -0.21875 4.46875 -1.03125 C 3.601562 -1.84375 3.171875 -2.984375 3.171875 -4.453125 Z M 3.171875 -22.84375 "/></g></g></g><g fill="#00897b" fill-opacity="1"><g transform="translate(173.321453, 104.514909)"><g><path d="M 7.75 0.40625 C 6.570312 0.40625 5.507812 0.191406 4.5625 -0.234375 C 3.613281 -0.671875 2.859375 -1.3125 2.296875 -2.15625 C 1.742188 -3 1.46875 -4.023438 1.46875 -5.234375 C 1.46875 -6.285156 1.671875 -7.140625 2.078125 -7.796875 C 2.492188 -8.453125 3.046875 -8.96875 3.734375 -9.34375 C 4.429688 -9.726562 5.203125 -10.015625 6.046875 -10.203125 C 6.898438 -10.390625 7.757812 -10.539062 8.625 -10.65625 C 9.738281 -10.800781 10.632812 -10.910156 11.3125 -10.984375 C 12 -11.054688 12.503906 -11.179688 12.828125 -11.359375 C 13.160156 -11.546875 13.328125 -11.867188 13.328125 -12.328125 L 13.328125 -12.453125 C 13.328125 -13.191406 13.179688 -13.828125 12.890625 -14.359375 C 12.597656 -14.890625 12.160156 -15.296875 11.578125 -15.578125 C 11.003906 -15.859375 10.289062 -16 9.4375 -16 C 8.5625 -16 7.8125 -15.863281 7.1875 -15.59375 C 6.5625 -15.320312 6.050781 -14.972656 5.65625 -14.546875 C 5.257812 -14.117188 4.984375 -13.664062 4.828125 -13.1875 L 1.953125 -13.9375 C 2.335938 -15.0625 2.910156 -15.960938 3.671875 -16.640625 C 4.429688 -17.316406 5.304688 -17.8125 6.296875 -18.125 C 7.296875 -18.445312 8.320312 -18.609375 9.375 -18.609375 C 10.082031 -18.609375 10.832031 -18.515625 11.625 -18.328125 C 12.425781 -18.148438 13.175781 -17.832031 13.875 -17.375 C 14.582031 -16.925781 15.15625 -16.28125 15.59375 -15.4375 C 16.039062 -14.601562 16.265625 -13.53125 16.265625 -12.21875 L 16.265625 0 L 13.359375 0 L 13.359375 -2.53125 L 13.1875 -2.53125 C 12.976562 -2.09375 12.644531 -1.644531 12.1875 -1.1875 C 11.738281 -0.738281 11.148438 -0.359375 10.421875 -0.046875 C 9.691406 0.253906 8.800781 0.40625 7.75 0.40625 Z M 8.21875 -2.234375 C 9.34375 -2.234375 10.28125 -2.441406 11.03125 -2.859375 C 11.78125 -3.285156 12.347656 -3.84375 12.734375 -4.53125 C 13.128906 -5.21875 13.328125 -5.941406 13.328125 -6.703125 L 13.328125 -9.1875 C 13.203125 -9.050781 12.945312 -8.925781 12.5625 -8.8125 C 12.1875 -8.707031 11.742188 -8.609375 11.234375 -8.515625 C 10.734375 -8.429688 10.234375 -8.359375 9.734375 -8.296875 C 9.242188 -8.234375 8.828125 -8.179688 8.484375 -8.140625 C 7.773438 -8.054688 7.109375 -7.90625 6.484375 -7.6875 C 5.867188 -7.46875 5.375 -7.148438 5 -6.734375 C 4.625 -6.328125 4.4375 -5.773438 4.4375 -5.078125 C 4.4375 -4.460938 4.597656 -3.941406 4.921875 -3.515625 C 5.253906 -3.085938 5.703125 -2.765625 6.265625 -2.546875 C 6.828125 -2.335938 7.476562 -2.234375 8.21875 -2.234375 Z M 8.21875 -2.234375 "/></g></g></g></svg>