<svg xmlns="http://www.w3.org/2000/svg" xmlns:xlink="http://www.w3.org/1999/xlink" width="512" zoomAndPan="magnify" viewBox="0 0 384 383.999986" height="512" preserveAspectRatio="xMidYMid meet" version="1.0"><defs><clipPath id="52e83530ef"><path d="M 159 213 L 225 213 L 225 361.1875 L 159 361.1875 Z M 159 213 " clip-rule="nonzero"/></clipPath><clipPath id="dad13475b0"><path d="M 159 22.9375 L 225 22.9375 L 225 171 L 159 171 Z M 159 22.9375 " clip-rule="nonzero"/></clipPath><clipPath id="3db7099d38"><path d="M 213 159 L 361.1875 159 L 361.1875 225 L 213 225 Z M 213 159 " clip-rule="nonzero"/></clipPath><clipPath id="9a37263518"><path d="M 22.9375 159 L 171 159 L 171 225 L 22.9375 225 Z M 22.9375 159 " clip-rule="nonzero"/></clipPath></defs><g clip-path="url(#52e83530ef)"><path fill="#4db6ac" d="M 214.179688 271.921875 C 198.386719 239.953125 193.203125 217.941406 192.195312 213.179688 C 192.101562 213.183594 192.007812 213.195312 191.910156 213.195312 C 191.875 213.195312 191.84375 213.191406 191.808594 213.1875 C 190.796875 217.972656 185.613281 239.976562 169.828125 271.921875 C 151.914062 308.175781 155.324219 361.0625 192 361.070312 L 192.007812 361.070312 C 228.683594 361.0625 232.09375 308.175781 214.179688 271.921875 Z M 214.179688 271.921875 " fill-opacity="1" fill-rule="nonzero"/></g><g clip-path="url(#dad13475b0)"><path fill="#4db6ac" d="M 169.828125 112.085938 C 185.621094 144.054688 190.804688 166.066406 191.8125 170.828125 C 191.90625 170.824219 192 170.8125 192.097656 170.8125 C 192.132812 170.8125 192.164062 170.820312 192.199219 170.820312 C 193.210938 166.035156 198.398438 144.03125 214.179688 112.085938 C 232.09375 75.832031 228.683594 22.945312 192.007812 22.9375 L 192 22.9375 C 155.324219 22.945312 151.914062 75.832031 169.828125 112.085938 Z M 169.828125 112.085938 " fill-opacity="1" fill-rule="nonzero"/></g><g clip-path="url(#3db7099d38)"><path fill="#4db6ac" d="M 271.921875 169.828125 C 239.957031 185.621094 217.941406 190.804688 213.179688 191.8125 C 213.1875 191.90625 213.195312 192 213.195312 192.097656 C 213.195312 192.132812 213.191406 192.164062 213.1875 192.199219 C 217.972656 193.210938 239.976562 198.398438 271.921875 214.179688 C 308.175781 232.09375 361.0625 228.683594 361.070312 192.007812 L 361.070312 192 C 361.0625 155.324219 308.175781 151.914062 271.921875 169.828125 Z M 271.921875 169.828125 " fill-opacity="1" fill-rule="nonzero"/></g><g clip-path="url(#9a37263518)"><path fill="#4db6ac" d="M 112.085938 214.179688 C 144.054688 198.386719 166.066406 193.203125 170.828125 192.195312 C 170.824219 192.101562 170.8125 192.007812 170.8125 191.910156 C 170.8125 191.875 170.820312 191.84375 170.820312 191.808594 C 166.035156 190.796875 144.03125 185.613281 112.085938 169.828125 C 75.832031 151.914062 22.945312 155.324219 22.9375 192 L 22.9375 192.007812 C 22.945312 228.683594 75.832031 232.09375 112.085938 214.179688 Z M 112.085938 214.179688 " fill-opacity="1" fill-rule="nonzero"/></g><path fill="#4db6ac" d="M 250.382812 226.417969 C 223.503906 217.316406 208.199219 207.847656 204.953125 205.730469 C 204.902344 205.789062 204.855469 205.847656 204.800781 205.902344 C 204.78125 205.917969 204.761719 205.9375 204.742188 205.953125 C 206.863281 209.214844 216.328125 224.515625 225.421875 251.375 C 235.742188 281.859375 267.421875 309.699219 288.066406 289.066406 L 288.070312 289.0625 C 308.707031 268.417969 280.863281 236.738281 250.382812 226.417969 Z M 250.382812 226.417969 " fill-opacity="1" fill-rule="nonzero"/><path fill="#4db6ac" d="M 135.476562 161.429688 C 162.351562 170.53125 177.65625 180 180.902344 182.117188 C 180.953125 182.058594 181 182 181.054688 181.945312 C 181.074219 181.925781 181.097656 181.910156 181.117188 181.890625 C 178.992188 178.632812 169.53125 163.332031 160.4375 136.472656 C 150.113281 105.988281 118.433594 78.144531 97.789062 98.78125 L 97.785156 98.785156 C 77.152344 119.429688 104.992188 151.109375 135.476562 161.429688 Z M 135.476562 161.429688 " fill-opacity="1" fill-rule="nonzero"/><path fill="#4db6ac" d="M 225.421875 136.472656 C 216.320312 163.347656 206.851562 178.652344 204.734375 181.898438 C 204.792969 181.949219 204.851562 181.996094 204.90625 182.050781 C 204.925781 182.070312 204.941406 182.09375 204.960938 182.113281 C 208.21875 179.988281 223.519531 170.523438 250.378906 161.429688 C 280.863281 151.109375 308.707031 119.429688 288.070312 98.785156 L 288.066406 98.78125 C 267.421875 78.144531 235.742188 105.988281 225.421875 136.472656 Z M 225.421875 136.472656 " fill-opacity="1" fill-rule="nonzero"/><path fill="#4db6ac" d="M 160.4375 251.375 C 169.535156 224.5 179.007812 209.195312 181.121094 205.949219 C 181.0625 205.898438 181.003906 205.851562 180.953125 205.796875 C 180.933594 205.777344 180.914062 205.753906 180.898438 205.734375 C 177.636719 207.859375 162.335938 217.320312 135.476562 226.417969 C 104.992188 236.738281 77.152344 268.417969 97.785156 289.0625 L 97.789062 289.066406 C 118.433594 309.703125 150.113281 281.859375 160.4375 251.375 Z M 160.4375 251.375 " fill-opacity="1" fill-rule="nonzero"/></svg>