<svg xmlns="http://www.w3.org/2000/svg" xmlns:xlink="http://www.w3.org/1999/xlink" width="280" zoomAndPan="magnify" viewBox="0 0 210 44.999999" height="60" preserveAspectRatio="xMidYMid meet" version="1.0"><defs><g/><clipPath id="0c7633646f"><path d="M 20 24 L 25 24 L 25 33.417969 L 20 33.417969 Z M 20 24 " clip-rule="nonzero"/></clipPath><clipPath id="bdabfffb07"><path d="M 20 13.167969 L 25 13.167969 L 25 23 L 20 23 Z M 20 13.167969 " clip-rule="nonzero"/></clipPath><clipPath id="8c52ce9d76"><path d="M 24 21 L 32.871094 21 L 32.871094 26 L 24 26 Z M 24 21 " clip-rule="nonzero"/></clipPath><clipPath id="86256e9bbf"><path d="M 12.621094 21 L 22 21 L 22 26 L 12.621094 26 Z M 12.621094 21 " clip-rule="nonzero"/></clipPath></defs><g clip-path="url(#0c7633646f)"><path fill="#00897b" d="M 24.101562 28.117188 C 23.152344 26.195312 22.84375 24.875 22.78125 24.589844 C 22.777344 24.589844 22.769531 24.589844 22.765625 24.589844 C 22.761719 24.589844 22.761719 24.589844 22.757812 24.589844 C 22.699219 24.878906 22.386719 26.199219 21.4375 28.117188 C 20.363281 30.292969 20.566406 33.46875 22.769531 33.46875 C 24.972656 33.46875 25.175781 30.292969 24.101562 28.117188 Z M 24.101562 28.117188 " fill-opacity="1" fill-rule="nonzero"/></g><g clip-path="url(#bdabfffb07)"><path fill="#00897b" d="M 21.4375 18.519531 C 22.386719 20.441406 22.699219 21.761719 22.757812 22.046875 C 22.765625 22.046875 22.769531 22.046875 22.777344 22.046875 C 22.777344 22.046875 22.78125 22.046875 22.78125 22.046875 C 22.84375 21.761719 23.152344 20.4375 24.101562 18.519531 C 25.175781 16.34375 24.972656 13.171875 22.769531 13.167969 C 20.566406 13.171875 20.363281 16.34375 21.4375 18.519531 Z M 21.4375 18.519531 " fill-opacity="1" fill-rule="nonzero"/></g><g clip-path="url(#8c52ce9d76)"><path fill="#00897b" d="M 27.566406 21.988281 C 25.648438 22.933594 24.328125 23.246094 24.039062 23.308594 C 24.042969 23.3125 24.042969 23.320312 24.042969 23.324219 C 24.042969 23.328125 24.042969 23.328125 24.042969 23.332031 C 24.328125 23.390625 25.648438 23.703125 27.566406 24.648438 C 29.742188 25.726562 32.917969 25.519531 32.917969 23.320312 C 32.917969 21.117188 29.742188 20.910156 27.566406 21.988281 Z M 27.566406 21.988281 " fill-opacity="1" fill-rule="nonzero"/></g><g clip-path="url(#86256e9bbf)"><path fill="#00897b" d="M 17.972656 24.648438 C 19.890625 23.703125 21.210938 23.390625 21.5 23.332031 C 21.5 23.324219 21.496094 23.320312 21.496094 23.3125 C 21.496094 23.3125 21.5 23.308594 21.5 23.308594 C 21.210938 23.246094 19.890625 22.933594 17.972656 21.988281 C 15.796875 20.910156 12.621094 21.117188 12.621094 23.320312 C 12.621094 25.519531 15.796875 25.726562 17.972656 24.648438 Z M 17.972656 24.648438 " fill-opacity="1" fill-rule="nonzero"/></g><path fill="#00897b" d="M 26.273438 25.382812 C 24.660156 24.839844 23.742188 24.269531 23.546875 24.144531 C 23.542969 24.144531 23.542969 24.148438 23.539062 24.152344 C 23.535156 24.152344 23.535156 24.15625 23.535156 24.15625 C 23.660156 24.351562 24.230469 25.269531 24.777344 26.882812 C 25.394531 28.710938 27.296875 30.382812 28.535156 29.144531 C 29.773438 27.90625 28.105469 26.003906 26.273438 25.382812 Z M 26.273438 25.382812 " fill-opacity="1" fill-rule="nonzero"/><path fill="#00897b" d="M 19.375 21.484375 C 20.988281 22.03125 21.910156 22.597656 22.105469 22.726562 C 22.105469 22.722656 22.109375 22.71875 22.113281 22.714844 C 22.113281 22.714844 22.113281 22.710938 22.117188 22.710938 C 21.988281 22.515625 21.421875 21.597656 20.875 19.984375 C 20.253906 18.15625 18.355469 16.484375 17.113281 17.722656 C 15.875 18.960938 17.546875 20.863281 19.375 21.484375 Z M 19.375 21.484375 " fill-opacity="1" fill-rule="nonzero"/><path fill="#00897b" d="M 24.777344 19.984375 C 24.230469 21.597656 23.660156 22.515625 23.535156 22.710938 C 23.539062 22.714844 23.542969 22.71875 23.542969 22.722656 C 23.546875 22.722656 23.546875 22.722656 23.546875 22.726562 C 23.742188 22.597656 24.660156 22.027344 26.273438 21.484375 C 28.105469 20.863281 29.773438 18.960938 28.535156 17.722656 C 27.296875 16.484375 25.394531 18.15625 24.777344 19.984375 Z M 24.777344 19.984375 " fill-opacity="1" fill-rule="nonzero"/><path fill="#00897b" d="M 20.875 26.882812 C 21.421875 25.269531 21.988281 24.351562 22.117188 24.15625 C 22.113281 24.152344 22.109375 24.148438 22.105469 24.148438 C 22.105469 24.144531 22.105469 24.144531 22.101562 24.144531 C 21.90625 24.269531 20.988281 24.839844 19.375 25.382812 C 17.546875 26.003906 15.875 27.90625 17.113281 29.144531 C 18.355469 30.382812 20.253906 28.710938 20.875 26.882812 Z M 20.875 26.882812 " fill-opacity="1" fill-rule="nonzero"/><g fill="#00897b" fill-opacity="1"><g transform="translate(34.863355, 32.654423)"><g><path d="M 10.046875 0 L 4.125 0 L 4.125 -4.03125 L 9.828125 -4.03125 C 11.304688 -4.03125 12.546875 -4.296875 13.546875 -4.828125 C 14.546875 -5.359375 15.296875 -6.175781 15.796875 -7.28125 C 16.304688 -8.382812 16.5625 -9.78125 16.5625 -11.46875 C 16.5625 -13.144531 16.304688 -14.53125 15.796875 -15.625 C 15.296875 -16.726562 14.546875 -17.546875 13.546875 -18.078125 C 12.554688 -18.609375 11.328125 -18.875 9.859375 -18.875 L 4.015625 -18.875 L 4.015625 -22.90625 L 10.125 -22.90625 C 12.4375 -22.90625 14.421875 -22.445312 16.078125 -21.53125 C 17.734375 -20.613281 19.007812 -19.296875 19.90625 -17.578125 C 20.800781 -15.867188 21.25 -13.832031 21.25 -11.46875 C 21.25 -9.09375 20.800781 -7.046875 19.90625 -5.328125 C 19.019531 -3.617188 17.738281 -2.300781 16.0625 -1.375 C 14.382812 -0.457031 12.378906 0 10.046875 0 Z M 6.6875 -22.90625 L 6.6875 0 L 1.984375 0 L 1.984375 -22.90625 Z M 6.6875 -22.90625 "/></g></g></g><g fill="#00897b" fill-opacity="1"><g transform="translate(57.441024, 32.654423)"><g><path d="M 9.546875 0.34375 C 7.835938 0.34375 6.351562 -0.0195312 5.09375 -0.75 C 3.84375 -1.488281 2.875 -2.515625 2.1875 -3.828125 C 1.507812 -5.148438 1.171875 -6.679688 1.171875 -8.421875 C 1.171875 -10.179688 1.507812 -11.71875 2.1875 -13.03125 C 2.875 -14.351562 3.84375 -15.378906 5.09375 -16.109375 C 6.351562 -16.847656 7.835938 -17.21875 9.546875 -17.21875 C 11.242188 -17.21875 12.71875 -16.847656 13.96875 -16.109375 C 15.226562 -15.378906 16.195312 -14.351562 16.875 -13.03125 C 17.5625 -11.71875 17.90625 -10.179688 17.90625 -8.421875 C 17.90625 -6.679688 17.5625 -5.148438 16.875 -3.828125 C 16.195312 -2.515625 15.226562 -1.488281 13.96875 -0.75 C 12.71875 -0.0195312 11.242188 0.34375 9.546875 0.34375 Z M 9.546875 -3.296875 C 10.347656 -3.296875 11.019531 -3.515625 11.5625 -3.953125 C 12.113281 -4.390625 12.53125 -4.992188 12.8125 -5.765625 C 13.101562 -6.546875 13.25 -7.4375 13.25 -8.4375 C 13.25 -9.457031 13.101562 -10.347656 12.8125 -11.109375 C 12.53125 -11.878906 12.113281 -12.484375 11.5625 -12.921875 C 11.019531 -13.367188 10.347656 -13.59375 9.546875 -13.59375 C 8.742188 -13.59375 8.066406 -13.367188 7.515625 -12.921875 C 6.960938 -12.484375 6.546875 -11.878906 6.265625 -11.109375 C 5.984375 -10.347656 5.84375 -9.457031 5.84375 -8.4375 C 5.84375 -7.4375 5.984375 -6.546875 6.265625 -5.765625 C 6.546875 -4.992188 6.957031 -4.390625 7.5 -3.953125 C 8.050781 -3.515625 8.734375 -3.296875 9.546875 -3.296875 Z M 9.546875 -3.296875 "/></g></g></g><g fill="#00897b" fill-opacity="1"><g transform="translate(76.514467, 32.654423)"><g><path d="M 8.6875 0.359375 C 7.300781 0.359375 6.070312 0.15625 5 -0.25 C 3.925781 -0.65625 3.054688 -1.242188 2.390625 -2.015625 C 1.722656 -2.785156 1.300781 -3.707031 1.125 -4.78125 L 5.4375 -5.359375 C 5.632812 -4.585938 6.007812 -4 6.5625 -3.59375 C 7.113281 -3.195312 7.851562 -3 8.78125 -3 C 9.644531 -3 10.328125 -3.164062 10.828125 -3.5 C 11.335938 -3.832031 11.59375 -4.253906 11.59375 -4.765625 C 11.59375 -5.203125 11.410156 -5.5625 11.046875 -5.84375 C 10.679688 -6.125 10.132812 -6.34375 9.40625 -6.5 L 6.46875 -7.09375 C 4.832031 -7.425781 3.601562 -7.992188 2.78125 -8.796875 C 1.957031 -9.609375 1.546875 -10.65625 1.546875 -11.9375 C 1.546875 -13.019531 1.84375 -13.953125 2.4375 -14.734375 C 3.03125 -15.523438 3.859375 -16.132812 4.921875 -16.5625 C 5.992188 -17 7.25 -17.21875 8.6875 -17.21875 C 10.0625 -17.21875 11.25 -17.019531 12.25 -16.625 C 13.257812 -16.238281 14.066406 -15.6875 14.671875 -14.96875 C 15.285156 -14.25 15.671875 -13.40625 15.828125 -12.4375 L 11.734375 -11.875 C 11.585938 -12.476562 11.265625 -12.96875 10.765625 -13.34375 C 10.265625 -13.726562 9.601562 -13.921875 8.78125 -13.921875 C 8.007812 -13.921875 7.375 -13.757812 6.875 -13.4375 C 6.382812 -13.113281 6.140625 -12.695312 6.140625 -12.1875 C 6.140625 -11.757812 6.304688 -11.398438 6.640625 -11.109375 C 6.984375 -10.816406 7.535156 -10.59375 8.296875 -10.4375 L 11.375 -9.828125 C 13.03125 -9.492188 14.257812 -8.945312 15.0625 -8.1875 C 15.875 -7.4375 16.28125 -6.453125 16.28125 -5.234375 C 16.28125 -4.109375 15.957031 -3.128906 15.3125 -2.296875 C 14.664062 -1.460938 13.769531 -0.8125 12.625 -0.34375 C 11.488281 0.125 10.175781 0.359375 8.6875 0.359375 Z M 8.6875 0.359375 "/></g></g></g><g fill="#00897b" fill-opacity="1"><g transform="translate(93.866536, 32.654423)"><g><path d="M 9.578125 0.34375 C 7.847656 0.34375 6.351562 -0.015625 5.09375 -0.734375 C 3.84375 -1.453125 2.875 -2.46875 2.1875 -3.78125 C 1.507812 -5.09375 1.171875 -6.632812 1.171875 -8.40625 C 1.171875 -10.15625 1.507812 -11.6875 2.1875 -13 C 2.863281 -14.320312 3.816406 -15.351562 5.046875 -16.09375 C 6.273438 -16.84375 7.710938 -17.21875 9.359375 -17.21875 C 10.492188 -17.21875 11.546875 -17.03125 12.515625 -16.65625 C 13.492188 -16.289062 14.347656 -15.742188 15.078125 -15.015625 C 15.816406 -14.296875 16.390625 -13.394531 16.796875 -12.3125 C 17.203125 -11.238281 17.40625 -9.992188 17.40625 -8.578125 L 17.40625 -7.296875 L 3 -7.296875 L 3 -10.1875 L 15.171875 -10.1875 L 13.03125 -9.4375 C 13.03125 -10.320312 12.890625 -11.085938 12.609375 -11.734375 C 12.335938 -12.378906 11.929688 -12.878906 11.390625 -13.234375 C 10.859375 -13.585938 10.195312 -13.765625 9.40625 -13.765625 C 8.613281 -13.765625 7.941406 -13.582031 7.390625 -13.21875 C 6.835938 -12.863281 6.414062 -12.375 6.125 -11.75 C 5.832031 -11.125 5.6875 -10.40625 5.6875 -9.59375 L 5.6875 -7.5625 C 5.6875 -6.613281 5.847656 -5.804688 6.171875 -5.140625 C 6.503906 -4.472656 6.96875 -3.96875 7.5625 -3.625 C 8.164062 -3.28125 8.867188 -3.109375 9.671875 -3.109375 C 10.210938 -3.109375 10.707031 -3.1875 11.15625 -3.34375 C 11.601562 -3.5 11.984375 -3.726562 12.296875 -4.03125 C 12.609375 -4.332031 12.84375 -4.707031 13 -5.15625 L 17.171875 -4.546875 C 16.898438 -3.566406 16.421875 -2.707031 15.734375 -1.96875 C 15.046875 -1.238281 14.179688 -0.671875 13.140625 -0.265625 C 12.097656 0.140625 10.910156 0.34375 9.578125 0.34375 Z M 9.578125 0.34375 "/></g></g></g><g fill="#00897b" fill-opacity="1"><g transform="translate(112.382881, 32.654423)"><g><path d="M 12.015625 0.328125 C 10.035156 0.328125 8.269531 -0.148438 6.71875 -1.109375 C 5.164062 -2.078125 3.953125 -3.441406 3.078125 -5.203125 C 2.203125 -6.972656 1.765625 -9.050781 1.765625 -11.4375 C 1.765625 -13.84375 2.203125 -15.925781 3.078125 -17.6875 C 3.953125 -19.445312 5.164062 -20.8125 6.71875 -21.78125 C 8.269531 -22.75 10.035156 -23.234375 12.015625 -23.234375 C 13.191406 -23.234375 14.296875 -23.0625 15.328125 -22.71875 C 16.359375 -22.375 17.285156 -21.875 18.109375 -21.21875 C 18.941406 -20.5625 19.628906 -19.765625 20.171875 -18.828125 C 20.722656 -17.898438 21.101562 -16.84375 21.3125 -15.65625 L 18.40625 -15.65625 C 18.238281 -16.445312 17.957031 -17.144531 17.5625 -17.75 C 17.164062 -18.351562 16.679688 -18.863281 16.109375 -19.28125 C 15.535156 -19.707031 14.898438 -20.023438 14.203125 -20.234375 C 13.515625 -20.441406 12.785156 -20.546875 12.015625 -20.546875 C 10.597656 -20.546875 9.328125 -20.1875 8.203125 -19.46875 C 7.078125 -18.757812 6.191406 -17.722656 5.546875 -16.359375 C 4.910156 -15.003906 4.59375 -13.363281 4.59375 -11.4375 C 4.59375 -9.519531 4.914062 -7.878906 5.5625 -6.515625 C 6.207031 -5.160156 7.09375 -4.128906 8.21875 -3.421875 C 9.34375 -2.710938 10.609375 -2.359375 12.015625 -2.359375 C 12.785156 -2.359375 13.515625 -2.460938 14.203125 -2.671875 C 14.898438 -2.890625 15.53125 -3.207031 16.09375 -3.625 C 16.664062 -4.039062 17.148438 -4.550781 17.546875 -5.15625 C 17.953125 -5.757812 18.242188 -6.453125 18.421875 -7.234375 L 21.3125 -7.234375 C 21.113281 -6.066406 20.738281 -5.019531 20.1875 -4.09375 C 19.632812 -3.164062 18.945312 -2.367188 18.125 -1.703125 C 17.300781 -1.046875 16.375 -0.539062 15.34375 -0.1875 C 14.3125 0.15625 13.203125 0.328125 12.015625 0.328125 Z M 12.015625 0.328125 "/></g></g></g><g fill="#00897b" fill-opacity="1"><g transform="translate(135.314047, 32.654423)"><g><path d="M 9.421875 0.375 C 7.785156 0.375 6.367188 0.00390625 5.171875 -0.734375 C 3.984375 -1.472656 3.070312 -2.5 2.4375 -3.8125 C 1.800781 -5.125 1.484375 -6.644531 1.484375 -8.375 C 1.484375 -10.101562 1.796875 -11.632812 2.421875 -12.96875 C 3.054688 -14.300781 3.953125 -15.34375 5.109375 -16.09375 C 6.265625 -16.84375 7.601562 -17.21875 9.125 -17.21875 C 10.09375 -17.21875 11.019531 -17.054688 11.90625 -16.734375 C 12.800781 -16.410156 13.601562 -15.898438 14.3125 -15.203125 C 15.019531 -14.515625 15.578125 -13.628906 15.984375 -12.546875 C 16.398438 -11.460938 16.609375 -10.164062 16.609375 -8.65625 L 16.609375 -7.59375 L 3.265625 -7.59375 L 3.265625 -9.90625 L 15.109375 -9.90625 L 13.859375 -9.0625 C 13.859375 -10.1875 13.675781 -11.175781 13.3125 -12.03125 C 12.957031 -12.894531 12.425781 -13.566406 11.71875 -14.046875 C 11.019531 -14.535156 10.15625 -14.78125 9.125 -14.78125 C 8.113281 -14.78125 7.238281 -14.535156 6.5 -14.046875 C 5.769531 -13.554688 5.210938 -12.90625 4.828125 -12.09375 C 4.441406 -11.28125 4.25 -10.382812 4.25 -9.40625 L 4.25 -7.96875 C 4.25 -6.726562 4.457031 -5.664062 4.875 -4.78125 C 5.300781 -3.894531 5.90625 -3.222656 6.6875 -2.765625 C 7.476562 -2.304688 8.394531 -2.078125 9.4375 -2.078125 C 10.132812 -2.078125 10.757812 -2.175781 11.3125 -2.375 C 11.875 -2.582031 12.351562 -2.882812 12.75 -3.28125 C 13.15625 -3.6875 13.460938 -4.179688 13.671875 -4.765625 L 16.328125 -4.1875 C 16.066406 -3.289062 15.617188 -2.5 14.984375 -1.8125 C 14.347656 -1.125 13.554688 -0.585938 12.609375 -0.203125 C 11.660156 0.179688 10.597656 0.375 9.421875 0.375 Z M 9.421875 0.375 "/></g></g></g><g fill="#00897b" fill-opacity="1"><g transform="translate(153.34237, 32.654423)"><g><path d="M 2.328125 0 L 2.328125 -16.96875 L 4.953125 -16.96875 L 4.953125 -14.359375 L 5.109375 -14.359375 C 5.421875 -15.222656 5.96875 -15.914062 6.75 -16.4375 C 7.53125 -16.957031 8.425781 -17.21875 9.4375 -17.21875 C 9.65625 -17.21875 9.894531 -17.210938 10.15625 -17.203125 C 10.425781 -17.191406 10.632812 -17.179688 10.78125 -17.171875 L 10.78125 -14.421875 C 10.695312 -14.441406 10.492188 -14.472656 10.171875 -14.515625 C 9.847656 -14.554688 9.5 -14.578125 9.125 -14.578125 C 8.363281 -14.578125 7.671875 -14.410156 7.046875 -14.078125 C 6.429688 -13.753906 5.945312 -13.296875 5.59375 -12.703125 C 5.238281 -12.109375 5.0625 -11.40625 5.0625 -10.59375 L 5.0625 0 Z M 2.328125 0 "/></g></g></g><g fill="#00897b" fill-opacity="1"><g transform="translate(164.807953, 32.654423)"><g><path d="M 9.15625 -16.96875 L 9.15625 -14.640625 L 0.296875 -14.640625 L 0.296875 -16.96875 Z M 2.9375 -21.140625 L 5.671875 -21.140625 L 5.671875 -4.328125 C 5.671875 -3.609375 5.820312 -3.082031 6.125 -2.75 C 6.425781 -2.414062 6.9375 -2.25 7.65625 -2.25 C 7.84375 -2.25 8.070312 -2.265625 8.34375 -2.296875 C 8.613281 -2.328125 8.859375 -2.359375 9.078125 -2.390625 L 9.53125 -0.078125 C 9.238281 0.00390625 8.914062 0.0664062 8.5625 0.109375 C 8.21875 0.148438 7.875 0.171875 7.53125 0.171875 C 6.0625 0.171875 4.925781 -0.203125 4.125 -0.953125 C 3.332031 -1.703125 2.9375 -2.757812 2.9375 -4.125 Z M 2.9375 -21.140625 "/></g></g></g><g fill="#00897b" fill-opacity="1"><g transform="translate(174.997875, 32.654423)"><g><path d="M 7.15625 0.375 C 6.070312 0.375 5.09375 0.175781 4.21875 -0.21875 C 3.34375 -0.625 2.644531 -1.21875 2.125 -2 C 1.613281 -2.78125 1.359375 -3.726562 1.359375 -4.84375 C 1.359375 -5.8125 1.546875 -6.597656 1.921875 -7.203125 C 2.304688 -7.804688 2.816406 -8.285156 3.453125 -8.640625 C 4.097656 -8.992188 4.8125 -9.257812 5.59375 -9.4375 C 6.382812 -9.613281 7.179688 -9.753906 7.984375 -9.859375 C 9.015625 -9.984375 9.84375 -10.082031 10.46875 -10.15625 C 11.101562 -10.226562 11.570312 -10.347656 11.875 -10.515625 C 12.175781 -10.691406 12.328125 -10.988281 12.328125 -11.40625 L 12.328125 -11.515625 C 12.328125 -12.203125 12.191406 -12.789062 11.921875 -13.28125 C 11.648438 -13.769531 11.25 -14.144531 10.71875 -14.40625 C 10.1875 -14.664062 9.523438 -14.796875 8.734375 -14.796875 C 7.921875 -14.796875 7.222656 -14.671875 6.640625 -14.421875 C 6.066406 -14.171875 5.597656 -13.847656 5.234375 -13.453125 C 4.867188 -13.066406 4.613281 -12.648438 4.46875 -12.203125 L 1.8125 -12.890625 C 2.164062 -13.929688 2.691406 -14.765625 3.390625 -15.390625 C 4.097656 -16.023438 4.910156 -16.488281 5.828125 -16.78125 C 6.742188 -17.070312 7.691406 -17.21875 8.671875 -17.21875 C 9.328125 -17.21875 10.023438 -17.128906 10.765625 -16.953125 C 11.503906 -16.785156 12.195312 -16.492188 12.84375 -16.078125 C 13.5 -15.660156 14.03125 -15.0625 14.4375 -14.28125 C 14.84375 -13.507812 15.046875 -12.515625 15.046875 -11.296875 L 15.046875 0 L 12.359375 0 L 12.359375 -2.34375 L 12.203125 -2.34375 C 12.015625 -1.9375 11.707031 -1.523438 11.28125 -1.109375 C 10.863281 -0.691406 10.316406 -0.335938 9.640625 -0.046875 C 8.960938 0.234375 8.132812 0.375 7.15625 0.375 Z M 7.609375 -2.0625 C 8.640625 -2.0625 9.503906 -2.257812 10.203125 -2.65625 C 10.898438 -3.050781 11.425781 -3.566406 11.78125 -4.203125 C 12.144531 -4.835938 12.328125 -5.503906 12.328125 -6.203125 L 12.328125 -8.5 C 12.210938 -8.375 11.976562 -8.257812 11.625 -8.15625 C 11.269531 -8.0625 10.859375 -7.972656 10.390625 -7.890625 C 9.929688 -7.804688 9.472656 -7.734375 9.015625 -7.671875 C 8.554688 -7.617188 8.171875 -7.570312 7.859375 -7.53125 C 7.203125 -7.445312 6.585938 -7.304688 6.015625 -7.109375 C 5.441406 -6.910156 4.976562 -6.617188 4.625 -6.234375 C 4.28125 -5.859375 4.109375 -5.347656 4.109375 -4.703125 C 4.109375 -4.128906 4.257812 -3.644531 4.5625 -3.25 C 4.863281 -2.851562 5.273438 -2.554688 5.796875 -2.359375 C 6.316406 -2.160156 6.921875 -2.0625 7.609375 -2.0625 Z M 7.609375 -2.0625 "/></g></g></g></svg>